<?xml version="1.0" encoding="UTF-8" standalone="no"?>
<!-- Created with Inkscape (http://www.inkscape.org/) -->
<svg
   xmlns:dc="http://purl.org/dc/elements/1.1/"
   xmlns:cc="http://creativecommons.org/ns#"
   xmlns:rdf="http://www.w3.org/1999/02/22-rdf-syntax-ns#"
   xmlns:svg="http://www.w3.org/2000/svg"
   xmlns="http://www.w3.org/2000/svg"
   xmlns:xlink="http://www.w3.org/1999/xlink"
   xmlns:sodipodi="http://sodipodi.sourceforge.net/DTD/sodipodi-0.dtd"
   xmlns:inkscape="http://www.inkscape.org/namespaces/inkscape"
   width="744.09448819"
   height="1052.3622047"
   id="svg2023"
   sodipodi:version="0.32"
   inkscape:version="0.46"
   sodipodi:docname="window.svg"
   sodipodi:docbase="D:\leisure\ink\share\templates"
   inkscape:output_extension="org.inkscape.output.svg.inkscape">
  <defs
     id="defs2025">
    <linearGradient
       id="linearGradient3830">
      <stop
         style="stop-color:#d8d8d8;stop-opacity:0"
         offset="0"
         id="stop3832" />
      <stop
         style="stop-color:#5c5c5c;stop-opacity:1;"
         offset="1"
         id="stop3834" />
    </linearGradient>
    <linearGradient
       id="linearGradient3818">
      <stop
         id="stop3820"
         offset="0"
         style="stop-color:#d8d8d8;stop-opacity:0;" />
      <stop
         id="stop3822"
         offset="1"
         style="stop-color:#5c5c5c;stop-opacity:1;" />
    </linearGradient>
    <linearGradient
       id="linearGradient3580">
      <stop
         style="stop-color:#000000;stop-opacity:1;"
         offset="0"
         id="stop3582" />
      <stop
         id="stop3588"
         offset="0.38181818"
         style="stop-color:#9c9c9c;stop-opacity:1;" />
      <stop
         style="stop-color:#000000;stop-opacity:1;"
         offset="1"
         id="stop3584" />
    </linearGradient>
    <linearGradient
       id="linearGradient3292">
      <stop
         style="stop-color:#aca1a1;stop-opacity:1;"
         offset="0"
         id="stop3294" />
      <stop
         style="stop-color:#d1bbbb;stop-opacity:1;"
         offset="1"
         id="stop3296" />
    </linearGradient>
    <linearGradient
       id="linearGradient3284">
      <stop
         id="stop3286"
         offset="0"
         style="stop-color:#505050;stop-opacity:1;" />
      <stop
         id="stop3288"
         offset="1"
         style="stop-color:#f4f4f4;stop-opacity:1;" />
    </linearGradient>
    <linearGradient
       id="linearGradient3274">
      <stop
         style="stop-color:#ffffff;stop-opacity:1;"
         offset="0"
         id="stop3276" />
      <stop
         style="stop-color:#ffffff;stop-opacity:0;"
         offset="1"
         id="stop3278" />
    </linearGradient>
    <linearGradient
       id="linearGradient3216">
      <stop
         style="stop-color:#000000;stop-opacity:1;"
         offset="0"
         id="stop3218" />
      <stop
         style="stop-color:#000000;stop-opacity:0.37837839;"
         offset="1"
         id="stop3220" />
    </linearGradient>
    <linearGradient
       id="linearGradient3160">
      <stop
         style="stop-color:#d8d8d8;stop-opacity:1;"
         offset="0"
         id="stop3162" />
      <stop
         style="stop-color:#959595;stop-opacity:1;"
         offset="1"
         id="stop3164" />
    </linearGradient>
    <inkscape:perspective
       sodipodi:type="inkscape:persp3d"
       inkscape:vp_x="0 : 526.18109 : 1"
       inkscape:vp_y="0 : 1000 : 0"
       inkscape:vp_z="744.09448 : 526.18109 : 1"
       inkscape:persp3d-origin="372.04724 : 350.78739 : 1"
       id="perspective7" />
    <linearGradient
       inkscape:collect="always"
       xlink:href="#linearGradient3160"
       id="linearGradient3166"
       x1="101.01525"
       y1="91.202034"
       x2="345.97726"
       y2="255.8569"
       gradientUnits="userSpaceOnUse"
       gradientTransform="matrix(1.5290309,0,0,1.5290309,-44.088158,-20.400819)" />
    <filter
       inkscape:collect="always"
       id="filter3576"
       x="-0.075486009"
       width="1.150972"
       y="-0.16136954"
       height="1.3227391">
      <feGaussianBlur
         inkscape:collect="always"
         stdDeviation="0.76272321"
         id="feGaussianBlur3578" />
    </filter>
    <filter
       inkscape:collect="always"
       id="filter3784"
       x="-0.16340883"
       width="1.3268177"
       y="-0.31638734"
       height="1.6327747">
      <feGaussianBlur
         inkscape:collect="always"
         stdDeviation="0.78235313"
         id="feGaussianBlur3786" />
    </filter>
    <linearGradient
       inkscape:collect="always"
       xlink:href="#linearGradient3818"
       id="linearGradient3824"
       gradientUnits="userSpaceOnUse"
       x1="218.4455"
       y1="186.66145"
       x2="385.3732"
       y2="240.70461"
       gradientTransform="matrix(1.5290309,0,0,1.5290309,-44.088158,-20.400819)" />
    <linearGradient
       inkscape:collect="always"
       xlink:href="#linearGradient3830"
       id="linearGradient3828"
       gradientUnits="userSpaceOnUse"
       x1="257.08383"
       y1="126.05229"
       x2="16.162447"
       y2="50.290859"
       gradientTransform="matrix(1.5290309,0,0,1.5290309,-44.088158,-20.400819)" />
    <filter
       inkscape:collect="always"
       id="filter3913">
      <feGaussianBlur
         inkscape:collect="always"
         stdDeviation="1.8368285"
         id="feGaussianBlur3915" />
    </filter>
    <filter
       inkscape:collect="always"
       id="filter3945">
      <feGaussianBlur
         inkscape:collect="always"
         stdDeviation="2.2960356"
         id="feGaussianBlur3947" />
    </filter>
    <filter
       inkscape:collect="always"
       id="filter3961">
      <feGaussianBlur
         inkscape:collect="always"
         stdDeviation="0.56252872"
         id="feGaussianBlur3963" />
    </filter>
    <radialGradient
       inkscape:collect="always"
       xlink:href="#linearGradient3216"
       id="radialGradient3985"
       gradientUnits="userSpaceOnUse"
       gradientTransform="matrix(1.5290309,0,0,4.587093e-3,-44.088158,123.02953)"
       cx="218.69802"
       cy="93.72742"
       fx="218.69802"
       fy="93.72742"
       r="126.26907" />
    <linearGradient
       inkscape:collect="always"
       xlink:href="#linearGradient3292"
       id="linearGradient4040"
       gradientUnits="userSpaceOnUse"
       x1="325.20831"
       y1="81.651543"
       x2="337.30383"
       y2="89.916595"
       gradientTransform="matrix(1.5290309,0,0,1.5290309,37.073078,-20.400819)" />
    <linearGradient
       inkscape:collect="always"
       xlink:href="#linearGradient3284"
       id="linearGradient4043"
       gradientUnits="userSpaceOnUse"
       x1="326.39703"
       y1="89.415924"
       x2="325.70892"
       y2="87.279587"
       gradientTransform="matrix(1.5290309,0,0,1.5290309,57.073078,-20.400819)" />
    <linearGradient
       inkscape:collect="always"
       xlink:href="#linearGradient3284"
       id="linearGradient4058"
       gradientUnits="userSpaceOnUse"
       gradientTransform="matrix(1.5290309,0,0,1.5290309,17.073078,-81.562055)"
       x1="326.39703"
       y1="89.415924"
       x2="325.70892"
       y2="87.279587" />
    <linearGradient
       inkscape:collect="always"
       xlink:href="#linearGradient3292"
       id="linearGradient4060"
       gradientUnits="userSpaceOnUse"
       gradientTransform="matrix(1.5290309,0,0,1.5290309,17.073078,-81.562055)"
       x1="325.20831"
       y1="81.651543"
       x2="337.30383"
       y2="89.916595" />
    <filter
       inkscape:collect="always"
       id="filter4952"
       x="-0.14452935"
       width="1.2890587"
       y="-0.32891062"
       height="1.6578212">
      <feGaussianBlur
         inkscape:collect="always"
         stdDeviation="1.3843746"
         id="feGaussianBlur4954" />
    </filter>
    <filter
       inkscape:collect="always"
       id="filter5370"
       x="-0.082580769"
       width="1.1651615"
       y="-0.15500874"
       height="1.3100175">
      <feGaussianBlur
         inkscape:collect="always"
         stdDeviation="0.40913575"
         id="feGaussianBlur5372" />
    </filter>
    <linearGradient
       inkscape:collect="always"
       xlink:href="#linearGradient3284"
       id="linearGradient5390"
       gradientUnits="userSpaceOnUse"
       gradientTransform="matrix(1.5290309,0,0,1.5290309,57.073078,-50.981437)"
       x1="326.39703"
       y1="89.415924"
       x2="325.70892"
       y2="87.279587" />
    <linearGradient
       inkscape:collect="always"
       xlink:href="#linearGradient3292"
       id="linearGradient5392"
       gradientUnits="userSpaceOnUse"
       gradientTransform="matrix(1.5290309,0,0,1.5290309,17.073078,-50.981437)"
       x1="325.20831"
       y1="81.651543"
       x2="337.30383"
       y2="89.916595" />
    <linearGradient
       inkscape:collect="always"
       xlink:href="#linearGradient3284"
       id="linearGradient5396"
       gradientUnits="userSpaceOnUse"
       gradientTransform="matrix(1.5290309,0,0,1.5290309,37.073078,-20.400819)"
       x1="326.39703"
       y1="89.415924"
       x2="325.70892"
       y2="87.279587" />
    <linearGradient
       inkscape:collect="always"
       xlink:href="#linearGradient3284"
       id="linearGradient5400"
       gradientUnits="userSpaceOnUse"
       gradientTransform="matrix(1.5290309,0,0,1.5290309,57.073078,-60.400819)"
       x1="326.39703"
       y1="89.415924"
       x2="325.70892"
       y2="87.279587" />
    <linearGradient
       inkscape:collect="always"
       xlink:href="#linearGradient3284"
       id="linearGradient5442"
       gradientUnits="userSpaceOnUse"
       gradientTransform="matrix(1.5290309,0,0,1.5290309,17.073078,-60.400819)"
       x1="326.39703"
       y1="89.415924"
       x2="325.70892"
       y2="87.279587" />
    <linearGradient
       inkscape:collect="always"
       xlink:href="#linearGradient3292"
       id="linearGradient5444"
       gradientUnits="userSpaceOnUse"
       gradientTransform="matrix(1.5290309,0,0,1.5290309,17.073078,-60.400819)"
       x1="325.20831"
       y1="81.651543"
       x2="337.30383"
       y2="89.916595" />
    <linearGradient
       inkscape:collect="always"
       xlink:href="#linearGradient3284"
       id="linearGradient5446"
       gradientUnits="userSpaceOnUse"
       gradientTransform="matrix(1.5290309,0,0,1.5290309,-2.926922,-60.400819)"
       x1="326.39703"
       y1="89.415924"
       x2="325.70892"
       y2="87.279587" />
    <linearGradient
       inkscape:collect="always"
       xlink:href="#linearGradient3292"
       id="linearGradient5448"
       gradientUnits="userSpaceOnUse"
       gradientTransform="matrix(1.5290309,0,0,1.5290309,57.073078,-60.400819)"
       x1="325.20831"
       y1="81.651543"
       x2="337.30383"
       y2="89.916595" />
    <linearGradient
       inkscape:collect="always"
       xlink:href="#linearGradient3292"
       id="linearGradient5450"
       gradientUnits="userSpaceOnUse"
       gradientTransform="matrix(1.5290309,0,0,1.5290309,17.073078,-20.400819)"
       x1="325.20831"
       y1="81.651543"
       x2="337.30383"
       y2="89.916595" />
    <linearGradient
       inkscape:collect="always"
       xlink:href="#linearGradient3284"
       id="linearGradient5452"
       gradientUnits="userSpaceOnUse"
       gradientTransform="matrix(1.5290309,0,0,1.5290309,17.073078,-20.400819)"
       x1="326.39703"
       y1="89.415924"
       x2="325.70892"
       y2="87.279587" />
    <linearGradient
       inkscape:collect="always"
       xlink:href="#linearGradient3284"
       id="linearGradient5466"
       gradientUnits="userSpaceOnUse"
       gradientTransform="matrix(1.5290309,0,0,1.5290309,17.073078,-60.400819)"
       x1="326.39703"
       y1="89.415924"
       x2="325.70892"
       y2="87.279587" />
    <linearGradient
       inkscape:collect="always"
       xlink:href="#linearGradient3292"
       id="linearGradient5468"
       gradientUnits="userSpaceOnUse"
       gradientTransform="matrix(1.5290309,0,0,1.5290309,17.073078,-60.400819)"
       x1="325.20831"
       y1="81.651543"
       x2="337.30383"
       y2="89.916595" />
    <filter
       inkscape:collect="always"
       id="filter5824"
       x="-0.14452935"
       width="1.2890587"
       y="-0.32891062"
       height="1.6578212">
      <feGaussianBlur
         inkscape:collect="always"
         stdDeviation="2.1167515"
         id="feGaussianBlur5826" />
    </filter>
    <linearGradient
       inkscape:collect="always"
       xlink:href="#linearGradient3284"
       id="linearGradient5838"
       gradientUnits="userSpaceOnUse"
       gradientTransform="matrix(1.5290309,0,0,1.5290309,17.073078,-100.40082)"
       x1="326.39703"
       y1="89.415924"
       x2="325.70892"
       y2="87.279587" />
  </defs>
  <sodipodi:namedview
     id="base"
     pagecolor="#ffffff"
     bordercolor="#666666"
     borderopacity="1.0"
     inkscape:pageopacity="0.0"
     inkscape:pageshadow="2"
     inkscape:zoom="1.979899"
     inkscape:cx="507.59659"
     inkscape:cy="892.75567"
     inkscape:document-units="px"
     inkscape:current-layer="layer1"
     inkscape:window-width="1680"
     inkscape:window-height="988"
     inkscape:window-x="-8"
     inkscape:window-y="-8"
     showgrid="false"
     showguides="true"
     inkscape:guide-bbox="true" />
  <metadata
     id="metadata2028">
    <rdf:RDF>
      <cc:Work
         rdf:about="">
        <dc:format>image/svg+xml</dc:format>
        <dc:type
           rdf:resource="http://purl.org/dc/dcmitype/StillImage" />
      </cc:Work>
    </rdf:RDF>
  </metadata>
  <g
     inkscape:label="Sluoksnis 1"
     inkscape:groupmode="layer"
     id="layer1">
    <rect
       ry="4.5456862"
       rx="8.0812206"
       y="78.070053"
       x="87.883278"
       height="188.89853"
       width="261.12445"
       id="rect3919"
       style="fill:#000000;fill-opacity:1;fill-rule:evenodd;stroke:none;stroke-width:1px;stroke-linecap:butt;stroke-linejoin:miter;stroke-opacity:1;filter:url(#filter3945)"
       inkscape:export-filename="E:\Home\Projects\Planetos\graphics\window.png"
       inkscape:export-xdpi="90"
       inkscape:export-ydpi="90"
       transform="matrix(1.5290309,0,0,1.5290309,-44.088158,-20.400819)" />
    <rect
       style="fill:#000000;fill-opacity:1;fill-rule:evenodd;stroke:none;stroke-width:1px;stroke-linecap:butt;stroke-linejoin:miter;stroke-opacity:1;filter:url(#filter3913)"
       id="rect3917"
       width="261.12445"
       height="188.89853"
       x="87.883278"
       y="78.070053"
       rx="8.0812206"
       ry="4.5456862"
       inkscape:export-filename="E:\Home\Projects\Planetos\graphics\window.png"
       inkscape:export-xdpi="90"
       inkscape:export-ydpi="90"
       transform="matrix(1.5290309,0,0,1.5290309,-44.088158,-20.400819)" />
    <rect
       ry="4.5456862"
       rx="8.0812206"
       y="78.070053"
       x="87.883278"
       height="188.89853"
       width="261.12445"
       id="rect3176"
       style="fill:#000000;fill-opacity:1;fill-rule:evenodd;stroke:none;stroke-width:1px;stroke-linecap:butt;stroke-linejoin:miter;stroke-opacity:1;filter:url(#filter3961)"
       inkscape:export-filename="E:\Home\Projects\Planetos\graphics\window.png"
       inkscape:export-xdpi="90"
       inkscape:export-ydpi="90"
       transform="matrix(1.5290309,0,0,1.5290309,-44.088158,-20.400819)" />
    <rect
       style="fill:url(#linearGradient3166);fill-opacity:1;fill-rule:evenodd;stroke:none;stroke-width:1px;stroke-linecap:butt;stroke-linejoin:miter;stroke-opacity:1"
       id="rect2380"
       width="399.26736"
       height="288.8317"
       x="90.288086"
       y="98.970703"
       rx="12.356436"
       ry="6.9504948"
       inkscape:export-filename="E:\Home\Projects\Planetos\graphics\window.png"
       inkscape:export-xdpi="90"
       inkscape:export-ydpi="90" />
    <rect
       style="opacity:0.82157677;fill:url(#linearGradient3828);fill-opacity:1;fill-rule:evenodd;stroke:none;stroke-width:1px;stroke-linecap:butt;stroke-linejoin:miter;stroke-opacity:1"
       id="rect3826"
       width="399.26736"
       height="288.8317"
       x="90.288086"
       y="98.970703"
       rx="12.356436"
       ry="6.9504948"
       inkscape:export-filename="E:\Home\Projects\Planetos\graphics\window.png"
       inkscape:export-xdpi="90"
       inkscape:export-ydpi="90" />
    <rect
       ry="6.9504948"
       rx="12.356436"
       y="98.970703"
       x="90.288086"
       height="288.8317"
       width="399.26736"
       id="rect3816"
       style="opacity:0.5767635;fill:url(#linearGradient3824);fill-opacity:1;fill-rule:evenodd;stroke:none;stroke-width:1px;stroke-linecap:butt;stroke-linejoin:miter;stroke-opacity:1"
       inkscape:export-filename="E:\Home\Projects\Planetos\graphics\window.png"
       inkscape:export-xdpi="90"
       inkscape:export-ydpi="90" />
    <rect
       ry="1.1584159"
       rx="12.356436"
       y="123.65254"
       x="97.62471"
       height="1.1584159"
       width="386.13861"
       id="rect3224"
       style="opacity:0.72199174;fill:#ffffff;fill-opacity:1;stroke:none;stroke-opacity:1"
       inkscape:export-filename="E:\Home\Projects\Planetos\graphics\window.png"
       inkscape:export-xdpi="90"
       inkscape:export-ydpi="90" />
    <rect
       style="fill:url(#radialGradient3985);fill-opacity:1;stroke:none;stroke-opacity:1"
       id="rect3214"
       width="386.13861"
       height="1.1584159"
       x="97.238571"
       y="122.88026"
       rx="12.356436"
       ry="1.1584159"
       inkscape:export-filename="E:\Home\Projects\Planetos\graphics\window.png"
       inkscape:export-xdpi="90"
       inkscape:export-ydpi="90" />
    <text
       id="text3792"
       y="55.185688"
       x="254.01085"
       style="font-size:15.29030895px;font-style:normal;font-weight:normal;fill:#f2f2f2;fill-opacity:1;stroke:none;stroke-width:1px;stroke-linecap:butt;stroke-linejoin:miter;stroke-opacity:1;font-family:Bitstream Vera Sans"
       xml:space="preserve"><tspan
         y="55.185688"
         x="254.01085"
         id="tspan3794"
         sodipodi:role="line">Welcome</tspan></text>
    <text
       xml:space="preserve"
       style="font-size:15.29030895px;font-style:normal;font-weight:normal;fill:#323232;fill-opacity:1;stroke:none;stroke-width:1px;stroke-linecap:butt;stroke-linejoin:miter;stroke-opacity:1;font-family:Bitstream Vera Sans"
       x="253.23857"
       y="54.799557"
       id="text3788"><tspan
         sodipodi:role="line"
         id="tspan3790"
         x="253.23857"
         y="54.799557">Welcome</tspan></text>
    <rect
       style="opacity:1;fill:none;fill-opacity:1;stroke:none;stroke-width:0.40000001;stroke-linecap:round;stroke-linejoin:round;stroke-miterlimit:4;stroke-dasharray:none;stroke-opacity:1"
       id="rect3999"
       width="413.16833"
       height="302.73264"
       x="83.337585"
       y="92.02021"
       rx="0"
       ry="0"
       inkscape:export-filename="E:\Home\Projects\Planetos\graphics\window.png"
       inkscape:export-xdpi="90"
       inkscape:export-ydpi="90" />
    <path
       transform="matrix(1.5290309,0,0,1.5290309,-44.088158,-20.400819)"
       inkscape:export-ydpi="90"
       inkscape:export-xdpi="90"
       inkscape:export-filename="E:\Home\Projects\Planetos\graphics\x_n.png"
       style="fill:#000000;fill-opacity:1;stroke:none;stroke-opacity:1;filter:url(#filter3576)"
       d="M 368.4375,80.21875 C 366.51838,80.21875 364.77493,80.46834 363.46875,80.90625 C 362.81566,81.125205 362.27054,81.379703 361.84375,81.71875 C 361.41696,82.057797 361.09375,82.529499 361.09375,83.09375 L 361.09375,88.71875 C 361.09375,89.283002 361.41605,89.757675 361.84375,90.09375 C 362.27145,90.429825 362.81584,90.691556 363.46875,90.90625 C 364.77457,91.335638 366.52015,91.562501 368.4375,91.5625 L 378,91.5625 C 379.91735,91.5625 381.66293,91.335638 382.96875,90.90625 C 383.62166,90.691556 384.16605,90.429825 384.59375,90.09375 C 385.02145,89.757675 385.34375,89.283001 385.34375,88.71875 L 385.34375,83.09375 C 385.34375,82.529498 385.02054,82.057797 384.59375,81.71875 C 384.16696,81.379703 383.62184,81.125205 382.96875,80.90625 C 381.66257,80.46834 379.91911,80.21875 378,80.21875 L 368.4375,80.21875 z M 368.4375,80.84375 L 378,80.84375 C 381.7245,80.84375 384.71875,81.85014 384.71875,83.09375 L 384.71875,88.71875 C 384.71875,89.962359 381.72451,90.9375 378,90.9375 L 368.4375,90.9375 C 364.713,90.937501 361.71875,89.96236 361.71875,88.71875 L 361.71875,83.09375 C 361.71875,81.850142 364.71299,80.84375 368.4375,80.84375 z"
       id="path5402" />
    <path
       style="opacity:1;fill:url(#linearGradient5452);fill-opacity:1;stroke:none;stroke-opacity:1"
       d="M 519.26416,102.25613 C 516.32977,102.25613 513.66398,102.63776 511.66679,103.30734 C 510.6682,103.64213 509.83469,104.03126 509.18212,104.54968 C 508.52954,105.06809 508.03534,105.78934 508.03534,106.65209 L 508.03534,115.25289 C 508.03534,116.11565 508.52815,116.84144 509.18212,117.35531 C 509.83608,117.86918 510.66847,118.26937 511.66679,118.59765 C 513.66343,119.25419 516.33248,119.60107 519.26416,119.60107 L 533.88552,119.60107 C 536.81721,119.60107 539.48626,119.25419 541.48289,118.59765 C 542.48121,118.26937 543.3136,117.86918 543.96757,117.35531 C 544.62154,116.84144 545.11434,116.11565 545.11434,115.25289 L 545.11434,106.65209 C 545.11434,105.78933 544.62015,105.06809 543.96757,104.54968 C 543.315,104.03126 542.48149,103.64213 541.48289,103.30734 C 539.48571,102.63776 536.8199,102.25613 533.88552,102.25613 L 519.26416,102.25613 z M 533.88552,103.21177 L 533.88552,103.21177 z"
       id="path5404"
       inkscape:export-filename="E:\Home\Projects\Planetos\graphics\x_n.png"
       inkscape:export-xdpi="90"
       inkscape:export-ydpi="90"
       sodipodi:nodetypes="cssccssccssccsscccc" />
    <rect
       inkscape:export-ydpi="90"
       inkscape:export-xdpi="90"
       inkscape:export-filename="E:\Home\Projects\Planetos\graphics\x_n.png"
       ry="3.4323432"
       rx="10.279573"
       y="103.21822"
       x="509.00232"
       height="15.445544"
       width="35.149979"
       id="rect5406"
       style="fill:url(#linearGradient5450);fill-opacity:1;stroke:none;stroke-opacity:1" />
    <path
       transform="matrix(1.5290309,0,0,1.5290309,-44.088158,-20.400819)"
       inkscape:export-ydpi="90"
       inkscape:export-xdpi="90"
       inkscape:export-filename="E:\Home\Projects\Planetos\graphics\x_n.png"
       style="fill:#626262;fill-opacity:1;stroke:none;stroke-width:0.40000001;stroke-linecap:round;stroke-linejoin:round;stroke-miterlimit:4;stroke-dasharray:none;stroke-opacity:1;filter:url(#filter3784)"
       d="M 367.49732,82.83129 L 370.17858,82.83129 L 373.17177,84.903897 L 376.24053,82.83129 L 378.98781,82.83129 L 374.55559,85.780124 L 378.98781,88.765938 L 376.25903,88.765938 L 373.23874,86.704819 L 370.15849,88.765938 L 367.49732,88.765938 L 371.90657,85.783956 L 367.49732,82.83129 z"
       id="path5408"
       sodipodi:nodetypes="ccccccccccccc" />
    <path
       inkscape:export-ydpi="90"
       inkscape:export-xdpi="90"
       inkscape:export-filename="E:\Home\Projects\Planetos\graphics\x_n.png"
       sodipodi:nodetypes="ccccccccccccc"
       id="path5410"
       d="M 517.8266,106.25078 L 521.92633,106.25078 L 526.50301,109.41986 L 531.19524,106.25078 L 535.39591,106.25078 L 528.61891,110.75964 L 535.39591,115.32504 L 531.22353,115.32504 L 526.60541,112.17353 L 521.89561,115.32504 L 517.8266,115.32504 L 524.56848,110.7655 L 517.8266,106.25078 z"
       style="fill:#ffffff;fill-opacity:1;stroke:#000000;stroke-width:0.61161238;stroke-linecap:round;stroke-linejoin:round;stroke-miterlimit:4;stroke-dasharray:none;stroke-opacity:1" />
    <path
       id="path5454"
       d="M 368.4375,80.21875 C 366.51838,80.21875 364.77493,80.46834 363.46875,80.90625 C 362.81566,81.125205 362.27054,81.379703 361.84375,81.71875 C 361.41696,82.057797 361.09375,82.529499 361.09375,83.09375 L 361.09375,88.71875 C 361.09375,89.283002 361.41605,89.757675 361.84375,90.09375 C 362.27145,90.429825 362.81584,90.691556 363.46875,90.90625 C 364.77457,91.335638 366.52015,91.562501 368.4375,91.5625 L 378,91.5625 C 379.91735,91.5625 381.66293,91.335638 382.96875,90.90625 C 383.62166,90.691556 384.16605,90.429825 384.59375,90.09375 C 385.02145,89.757675 385.34375,89.283001 385.34375,88.71875 L 385.34375,83.09375 C 385.34375,82.529498 385.02054,82.057797 384.59375,81.71875 C 384.16696,81.379703 383.62184,81.125205 382.96875,80.90625 C 381.66257,80.46834 379.91911,80.21875 378,80.21875 L 368.4375,80.21875 z M 368.4375,80.84375 L 378,80.84375 C 381.7245,80.84375 384.71875,81.85014 384.71875,83.09375 L 384.71875,88.71875 C 384.71875,89.962359 381.72451,90.9375 378,90.9375 L 368.4375,90.9375 C 364.713,90.937501 361.71875,89.96236 361.71875,88.71875 L 361.71875,83.09375 C 361.71875,81.850142 364.71299,80.84375 368.4375,80.84375 z"
       style="fill:#000000;fill-opacity:1;stroke:none;stroke-opacity:1;filter:url(#filter3576)"
       inkscape:export-filename="E:\Home\Projects\Planetos\graphics\x_a.png"
       inkscape:export-xdpi="90"
       inkscape:export-ydpi="90"
       transform="matrix(1.5290309,0,0,1.5290309,-44.088158,-60.400819)" />
    <path
       sodipodi:nodetypes="cssccssccssccsscccc"
       inkscape:export-ydpi="90"
       inkscape:export-xdpi="90"
       inkscape:export-filename="E:\Home\Projects\Planetos\graphics\x_a.png"
       id="path5456"
       d="M 519.26416,62.25613 C 516.32977,62.25613 513.66398,62.63776 511.66679,63.30734 C 510.6682,63.64213 509.83469,64.03126 509.18212,64.54968 C 508.52954,65.06809 508.03534,65.78934 508.03534,66.65209 L 508.03534,75.25289 C 508.03534,76.11565 508.52815,76.84144 509.18212,77.35531 C 509.83608,77.86918 510.66847,78.26937 511.66679,78.59765 C 513.66343,79.25419 516.33248,79.60107 519.26416,79.60107 L 533.88552,79.60107 C 536.81721,79.60107 539.48626,79.25419 541.48289,78.59765 C 542.48121,78.26937 543.3136,77.86918 543.96757,77.35531 C 544.62154,76.84144 545.11434,76.11565 545.11434,75.25289 L 545.11434,66.65209 C 545.11434,65.78933 544.62015,65.06809 543.96757,64.54968 C 543.315,64.03126 542.48149,63.64213 541.48289,63.30734 C 539.48571,62.63776 536.8199,62.25613 533.88552,62.25613 L 519.26416,62.25613 z M 533.88552,63.21177 L 533.88552,63.21177 z"
       style="opacity:1;fill:url(#linearGradient5466);fill-opacity:1;stroke:none;stroke-opacity:1" />
    <rect
       style="fill:url(#linearGradient5468);fill-opacity:1;stroke:none;stroke-opacity:1"
       id="rect5458"
       width="35.149979"
       height="15.445544"
       x="509.00232"
       y="63.218224"
       rx="10.279573"
       ry="3.4323432"
       inkscape:export-filename="E:\Home\Projects\Planetos\graphics\x_a.png"
       inkscape:export-xdpi="90"
       inkscape:export-ydpi="90" />
    <rect
       style="opacity:1;fill:none;fill-opacity:1;stroke:none;stroke-width:0.41338542000000000;stroke-linecap:round;stroke-linejoin:round;stroke-miterlimit:4;stroke-dasharray:none;stroke-opacity:1"
       id="rect5464"
       width="44.559956"
       height="24.659319"
       x="504.1662"
       y="58.314487"
       rx="0"
       ry="0"
       inkscape:export-filename="E:\Home\Projects\Planetos\graphics\x_a.png"
       inkscape:export-xdpi="90"
       inkscape:export-ydpi="90" />
    <rect
       inkscape:export-ydpi="90"
       inkscape:export-xdpi="90"
       inkscape:export-filename="E:\Home\Projects\Planetos\graphics\x_a.png"
       ry="3.4323432"
       rx="10.279573"
       y="63.218224"
       x="509.00232"
       height="15.445544"
       width="35.149979"
       id="rect5470"
       style="fill:#a60900;fill-opacity:1;stroke:none;stroke-opacity:1;filter:url(#filter5824);opacity:0.7593361" />
    <path
       transform="matrix(1.5290309,0,0,1.5290309,-44.088158,-100.40082)"
       inkscape:export-ydpi="90"
       inkscape:export-xdpi="90"
       inkscape:export-filename="E:\Home\Projects\Planetos\graphics\x_d.png"
       style="fill:#000000;fill-opacity:1;stroke:none;stroke-opacity:1;filter:url(#filter3576)"
       d="M 368.4375,80.21875 C 366.51838,80.21875 364.77493,80.46834 363.46875,80.90625 C 362.81566,81.125205 362.27054,81.379703 361.84375,81.71875 C 361.41696,82.057797 361.09375,82.529499 361.09375,83.09375 L 361.09375,88.71875 C 361.09375,89.283002 361.41605,89.757675 361.84375,90.09375 C 362.27145,90.429825 362.81584,90.691556 363.46875,90.90625 C 364.77457,91.335638 366.52015,91.562501 368.4375,91.5625 L 378,91.5625 C 379.91735,91.5625 381.66293,91.335638 382.96875,90.90625 C 383.62166,90.691556 384.16605,90.429825 384.59375,90.09375 C 385.02145,89.757675 385.34375,89.283001 385.34375,88.71875 L 385.34375,83.09375 C 385.34375,82.529498 385.02054,82.057797 384.59375,81.71875 C 384.16696,81.379703 383.62184,81.125205 382.96875,80.90625 C 381.66257,80.46834 379.91911,80.21875 378,80.21875 L 368.4375,80.21875 z M 368.4375,80.84375 L 378,80.84375 C 381.7245,80.84375 384.71875,81.85014 384.71875,83.09375 L 384.71875,88.71875 C 384.71875,89.962359 381.72451,90.9375 378,90.9375 L 368.4375,90.9375 C 364.713,90.937501 361.71875,89.96236 361.71875,88.71875 L 361.71875,83.09375 C 361.71875,81.850142 364.71299,80.84375 368.4375,80.84375 z"
       id="path5828" />
    <path
       style="opacity:1;fill:url(#linearGradient5838);fill-opacity:1;stroke:none;stroke-opacity:1"
       d="M 519.26416,22.25613 C 516.32977,22.25613 513.66398,22.63776 511.66679,23.30734 C 510.6682,23.64213 509.83469,24.03126 509.18212,24.54968 C 508.52954,25.06809 508.03534,25.78934 508.03534,26.65209 L 508.03534,35.25289 C 508.03534,36.11565 508.52815,36.84144 509.18212,37.35531 C 509.83608,37.86918 510.66847,38.26937 511.66679,38.59765 C 513.66343,39.25419 516.33248,39.60107 519.26416,39.60107 L 533.88552,39.60107 C 536.81721,39.60107 539.48626,39.25419 541.48289,38.59765 C 542.48121,38.26937 543.3136,37.86918 543.96757,37.35531 C 544.62154,36.84144 545.11434,36.11565 545.11434,35.25289 L 545.11434,26.65209 C 545.11434,25.78933 544.62015,25.06809 543.96757,24.54968 C 543.315,24.03126 542.48149,23.64213 541.48289,23.30734 C 539.48571,22.63776 536.8199,22.25613 533.88552,22.25613 L 519.26416,22.25613 z M 533.88552,23.21177 L 533.88552,23.21177 z"
       id="path5830"
       inkscape:export-filename="E:\Home\Projects\Planetos\graphics\x_d.png"
       inkscape:export-xdpi="90"
       inkscape:export-ydpi="90"
       sodipodi:nodetypes="cssccssccssccsscccc" />
    <rect
       inkscape:export-ydpi="90"
       inkscape:export-xdpi="90"
       inkscape:export-filename="E:\Home\Projects\Planetos\graphics\x_d.png"
       ry="3.4323432"
       rx="10.279573"
       y="23.218224"
       x="509.00232"
       height="15.445544"
       width="35.149979"
       id="rect5832"
       style="fill:#483736;fill-opacity:1;stroke:none;stroke-opacity:1" />
    <rect
       inkscape:export-ydpi="90"
       inkscape:export-xdpi="90"
       inkscape:export-filename="E:\Home\Projects\Planetos\graphics\x_d.png"
       ry="0"
       rx="0"
       y="18.314487"
       x="504.1662"
       height="24.659319"
       width="44.559956"
       id="rect5834"
       style="opacity:1;fill:none;fill-opacity:1;stroke:none;stroke-width:0.41338542000000000;stroke-linecap:round;stroke-linejoin:round;stroke-miterlimit:4;stroke-dasharray:none;stroke-opacity:1" />
    <rect
       style="opacity:0.75933611;fill:#a60900;fill-opacity:1;stroke:none;stroke-opacity:1;filter:url(#filter5824)"
       id="rect5836"
       width="35.149979"
       height="15.445544"
       x="509.00232"
       y="23.218224"
       rx="10.279573"
       ry="3.4323432"
       inkscape:export-filename="E:\Home\Projects\Planetos\graphics\x_d.png"
       inkscape:export-xdpi="90"
       inkscape:export-ydpi="90" />
    <path
       sodipodi:nodetypes="ccccccccccccc"
       id="path5460"
       d="M 367.49732,82.83129 L 370.17858,82.83129 L 373.17177,84.903897 L 376.24053,82.83129 L 378.98781,82.83129 L 374.55559,85.780124 L 378.98781,88.765938 L 376.25903,88.765938 L 373.23874,86.704819 L 370.15849,88.765938 L 367.49732,88.765938 L 371.90657,85.783956 L 367.49732,82.83129 z"
       style="fill:#626262;fill-opacity:1;stroke:none;stroke-width:0.40000001;stroke-linecap:round;stroke-linejoin:round;stroke-miterlimit:4;stroke-dasharray:none;stroke-opacity:1;filter:url(#filter3784)"
       inkscape:export-filename="E:\Home\Projects\Planetos\graphics\x_a.png"
       inkscape:export-xdpi="90"
       inkscape:export-ydpi="90"
       transform="matrix(1.5290309,0,0,1.5290309,-44.088158,-60.400819)" />
    <path
       style="fill:#ffffff;fill-opacity:1;stroke:#000000;stroke-width:0.61161238;stroke-linecap:round;stroke-linejoin:round;stroke-miterlimit:4;stroke-dasharray:none;stroke-opacity:1"
       d="M 517.8266,66.25078 L 521.92633,66.25078 L 526.50301,69.41986 L 531.19524,66.25078 L 535.39591,66.25078 L 528.61891,70.75964 L 535.39591,75.32504 L 531.22353,75.32504 L 526.60541,72.17353 L 521.89561,75.32504 L 517.8266,75.32504 L 524.56848,70.7655 L 517.8266,66.25078 z"
       id="path5462"
       sodipodi:nodetypes="ccccccccccccc"
       inkscape:export-filename="E:\Home\Projects\Planetos\graphics\x_a.png"
       inkscape:export-xdpi="90"
       inkscape:export-ydpi="90" />
    <path
       transform="matrix(1.5290309,0,0,1.5290309,-44.088158,-100.40082)"
       inkscape:export-ydpi="90"
       inkscape:export-xdpi="90"
       inkscape:export-filename="E:\Home\Projects\Planetos\graphics\x_d.png"
       style="fill:#626262;fill-opacity:1;stroke:none;stroke-width:0.40000001;stroke-linecap:round;stroke-linejoin:round;stroke-miterlimit:4;stroke-dasharray:none;stroke-opacity:1;filter:url(#filter3784)"
       d="M 367.49732,82.83129 L 370.17858,82.83129 L 373.17177,84.903897 L 376.24053,82.83129 L 378.98781,82.83129 L 374.55559,85.780124 L 378.98781,88.765938 L 376.25903,88.765938 L 373.23874,86.704819 L 370.15849,88.765938 L 367.49732,88.765938 L 371.90657,85.783956 L 367.49732,82.83129 z"
       id="path5842"
       sodipodi:nodetypes="ccccccccccccc" />
    <path
       inkscape:export-ydpi="90"
       inkscape:export-xdpi="90"
       inkscape:export-filename="E:\Home\Projects\Planetos\graphics\x_d.png"
       sodipodi:nodetypes="ccccccccccccc"
       id="path5844"
       d="M 517.8266,26.25078 L 521.92633,26.25078 L 526.50301,29.41986 L 531.19524,26.25078 L 535.39591,26.25078 L 528.61891,30.75964 L 535.39591,35.32504 L 531.22353,35.32504 L 526.60541,32.17353 L 521.89561,35.32504 L 517.8266,35.32504 L 524.56848,30.7655 L 517.8266,26.25078 z"
       style="fill:#ffffff;fill-opacity:1;stroke:#000000;stroke-width:0.61161238;stroke-linecap:round;stroke-linejoin:round;stroke-miterlimit:4;stroke-dasharray:none;stroke-opacity:1" />
    <rect
       inkscape:export-ydpi="90"
       inkscape:export-xdpi="90"
       inkscape:export-filename="E:\Home\Projects\Planetos\graphics\x_n.png"
       ry="0"
       rx="0"
       y="98.314484"
       x="504.1662"
       height="24.659319"
       width="44.559956"
       id="rect5846"
       style="opacity:1;fill:none;fill-opacity:1;stroke:none;stroke-width:0.41338542000000000;stroke-linecap:round;stroke-linejoin:round;stroke-miterlimit:4;stroke-dasharray:none;stroke-opacity:1" />
  </g>
</svg>
